<?xml version="1.0" encoding="utf-8" ?>
<svg baseProfile="full" height="200mm" version="1.1" viewBox="0,0,200,200" width="200mm" xmlns="http://www.w3.org/2000/svg" xmlns:ev="http://www.w3.org/2001/xml-events" xmlns:xlink="http://www.w3.org/1999/xlink"><defs /><rect fill="#1a1a1a" height="200" width="200" x="0" y="0" /><text alignment-baseline="middle" fill="#e1ed5e" style="dominant-baseline: central; font-size:9.0px; font-family:Arial;" text-anchor="middle" x="100.0" y="100.0">2022</text><line stroke="#e1ed5e" stroke-width="0.3" x1="100.0" x2="100.0" y1="15.0" y2="10.0" /><path d="M 100.0 14.0 a86.0,86.0 0 0,1 42.46469731375804,11.215312516191453" fill="none" id="id25" stroke="none" /><text fill="#e1ed5e" style="font-size:6.75px; font-family:Arial;" text-anchor="middle"><textPath startOffset="22.20632615414155" xlink:href="#id25">January</textPath></text><line stroke="#e1ed5e" stroke-width="0.3" x1="143.23703022742887" x2="145.7803849466894" y1="26.81831364943548" y2="22.513508569990506" /><path d="M 143.74570117128098 25.957352633546492 a86.0,86.0 0 0,1 28.547481713284135,27.462654790039103" fill="none" id="id26" stroke="none" /><text fill="#e1ed5e" style="font-size:6.75px; font-family:Arial;" text-anchor="middle"><textPath startOffset="19.985693538727396" xlink:href="#id26">February</textPath></text><line stroke="#e1ed5e" stroke-width="0.3" x1="172.23445277983987" x2="176.4835382374775" y1="55.19839476539836" y2="52.563006222186495" /><path d="M 173.08426987136738 54.67131705675599 a86.0,86.0 0 0,1 12.851231095245387,41.99856678651699" fill="none" id="id27" stroke="none" /><text fill="#e1ed5e" style="font-size:6.75px; font-family:Arial;" text-anchor="middle"><textPath startOffset="22.20632615414155" xlink:href="#id27">March</textPath></text><path d="M 118.03404312379186 89.2402003453031 l 5.967118441914112 -3.560211013698803 a27.948496597242727,27.948496597242727 0 0,0 0.24293941271074462,0.4152622062903254 l -6.027517529095183 3.4569693950545823" fill="#ff3805" stroke="none" /><path d="M 118.3937258080291 89.86733742301442 l 3.209279294834058 -1.7679150243538473 a24.66401379986302,24.66401379986302 0 0,0 0.20164816239049982,0.3736234198612901 l -3.2392355564430226 1.7124106211600985" fill="#ff0801" stroke="none" /><path d="M 118.89224826269711 90.83032412892265 l 4.8638352263040785 -2.3607456293912428 a26.406478801893734,26.406478801893734 0 0,0 0.19495753179642775,0.4106302823326522 l -4.903750951942262 2.2766729314180503" fill="#ff2203" stroke="none" /><path d="M 119.34039704204932 91.81776055985345 l 9.542081466525753 -4.036917915736101 a31.360889197950403,31.360889197950403 0 0,0 0.20605345663247954,0.4989747892491212 l -9.61015661004443 3.8720685560336765" fill="#ff6a09" stroke="none" /><line stroke="#e1ed5e" stroke-width="0.3" x1="184.98032266829074" x2="189.97916517819016" y1="98.17113171792111" y2="98.06355123074" /><path d="M 185.9800911702706 98.14961562048488 a86.0,86.0 0 0,1 -9.607161424134198,41.387399972396054" fill="none" id="id28" stroke="none" /><text fill="#e1ed5e" style="font-size:6.75px; font-family:Arial;" text-anchor="middle"><textPath startOffset="21.466115282336823" xlink:href="#id28">April</textPath></text><path d="M 120.64145759157962 103.86396538481128 l 6.2281578978097984 1.16587631573524 a27.336341088013093,27.336341088013093 0 0,0 -0.0905614800806275,0.4617710358648173 l -6.207166484753507 -1.2729110786680022" fill="#ff2f04" stroke="none" /><path d="M 120.23288151984713 105.62410040840565 l 6.096824327186332 1.694724113066683 a27.327982039795998,27.327982039795998 0 0,0 -0.12988256317219396,0.4521382413939126 l -6.0667491271280385 -1.7994198299651776" fill="#ff2f04" stroke="none" /><path d="M 119.41010516605496 108.01547362559984 l 5.838451932712521 2.41100999096241 a27.316683476882083,27.316683476882083 0 0,0 -0.18321562213329087,0.43306760970324965 l -5.796085329386921 -2.511152126331823" fill="#ff2f04" stroke="none" /><line stroke="#e1ed5e" stroke-width="0.3" x1="174.80103733775053" x2="179.2010983576182" y1="140.37084112569926" y2="142.7455964860345" /><path d="M 175.68104954172406 140.8457921977663 a86.0,86.0 0 0,1 -30.038265399797805,32.042727171017184" fill="none" id="id29" stroke="none" /><text fill="#e1ed5e" style="font-size:6.75px; font-family:Arial;" text-anchor="middle"><textPath startOffset="22.206326154141568" xlink:href="#id29">May</textPath></text><path d="M 116.27256486870786 113.27417163493432 l 4.108076801731476 3.3511199368785065 a26.30153749777071,26.30153749777071 0 0,0 -0.28919667700882,0.34835602740976057 l -4.049784124829112 -3.421337221402038" fill="#ff2003" stroke="none" /><path d="M 115.56566222782051 114.09645910891815 l 3.833239083043657 3.4714294321673567 a26.171512754532387,26.171512754532387 0 0,0 -0.30527647892421356,0.33131732503539507 l -3.7729161961237216 -3.536898012004087" fill="#ff1e03" stroke="none" /><path d="M 114.55890576462653 115.13401014063108 l 3.875372372029447 4.028456926997609 a26.589899483404345,26.589899483404345 0 0,0 -0.33258160768765227,0.3144766687659598 l -3.805454929950987 -4.0945682325094905" fill="#ff2403" stroke="none" /><path d="M 113.20401910651253 116.32954008644616 l 3.2546548707420153 4.0250636378673255 a26.17628395825871,26.17628395825871 0 0,0 -0.35280957347086317,0.28029326283733547 l -3.184887804553801 -4.080490814709787" fill="#ff1e03" stroke="none" /><line stroke="#e1ed5e" stroke-width="0.3" x1="143.8653032363475" x2="146.44561519142675" y1="172.8068346515853" y2="177.08958963109032" /><path d="M 144.38136562736335 173.6633856474863 a86.0,86.0 0 0,1 -40.68145358897372,12.25698825130547" fill="none" id="id30" stroke="none" /><text fill="#e1ed5e" style="font-size:6.75px; font-family:Arial;" text-anchor="middle"><textPath startOffset="21.466115282336833" xlink:href="#id30">June</textPath></text><path d="M 108.2653958097858 119.30500536409082 l 1.5159280927136372 3.5406652790619515 a24.85153847191395,24.85153847191395 0 0,0 -0.3946998740847693,0.1649845793785412 l -1.4547567591314068 -3.566234901460466" fill="#ff0b01" stroke="none" /><path d="M 106.2309692047433 120.05430185196036 l 1.6022366841534572 5.156780116620912 a26.39995773717016,26.39995773717016 0 0,0 -0.43512790697878334,0.13110046896405878 l -1.513233802734428 -5.183595954690697" fill="#ff2203" stroke="none" /><path d="M 103.06178313531738 120.77559828337769 l 0.9198826238680387 6.241824132119918 a27.309243420411747,27.309243420411747 0 0,0 -0.46565044119850546,0.06453490813362939 l -0.8123035914827027 -6.25673360574615" fill="#ff2f04" stroke="none" /><path d="M 102.34483914955558 120.86867818915974 l 0.6213899476643002 5.5302671188524 a26.565067822849805,26.565067822849805 0 0,0 -0.45485392657419815,0.04714746927491539 l -0.5261034244844994 -5.540143956583074" fill="#ff2403" stroke="none" /><line stroke="#e1ed5e" stroke-width="0.3" x1="102.19456741930631" x2="102.32365962044197" y1="184.97166512339345" y2="189.96999836594603" /><path d="M 102.22038585953345 185.97133177190398 a86.0,86.0 0 0,1 -42.740103519485714,-10.115201625700543" fill="none" id="id31" stroke="none" /><text fill="#e1ed5e" style="font-size:6.75px; font-family:Arial;" text-anchor="middle"><textPath startOffset="22.20632615414155" xlink:href="#id31">July</textPath></text><path d="M 94.11515582081647 120.15858648285463 l -0.977251042979109 3.3475822070258174 a24.48730931146057,24.48730931146057 0 0,0 -0.40360336006280456,-0.12160238157807594 l 1.0347293774821595 -3.3302644563420163" fill="#ff0500" stroke="none" /><path d="M 93.76903079525671 120.05430185196036 l -0.9964780754176208 3.2071530859232986 a24.358392393889574,24.358392393889574 0 0,0 -0.3993368842435891,-0.1278550596916335 l 1.0515363047521502 -3.1895251795719584" fill="#ff0300" stroke="none" /><path d="M 92.06813273071674 119.44442032107085 l -1.1992881840770973 2.939971477787483 a24.175173135227567,24.175173135227567 0 0,0 -0.38395762915183856,-0.16049432012535483 l 1.249717272726398 -2.918892114642155" fill="#ff0000" stroke="none" /><line stroke="#e1ed5e" stroke-width="0.3" x1="58.666819895761336" x2="56.23545636021788" y1="174.27360380694188" y2="178.64263932499728" /><path d="M 58.180547188652646 175.14741091055294 a86.0,86.0 0 0,1 -31.652253787137756,-30.449443065178592" fill="none" id="id32" stroke="none" /><text fill="#e1ed5e" style="font-size:6.75px; font-family:Arial;" text-anchor="middle"><textPath startOffset="22.20632615414155" xlink:href="#id32">August</textPath></text><path d="M 88.54995079064634 117.60387380957326 l -34.350147628061016 52.81162142871978 a84.0,84.0 0 0,0 -1.2053012050401528,-0.7988079156347263 l 35.25412353184113 -52.212515491993734" fill="#4dd2ff" stroke="none" /><line stroke="#e1ed5e" stroke-width="0.3" x1="26.63291911575756" x2="22.317208475507996" y1="142.92168965132927" y2="145.44649492493687" /><path d="M 25.769776987707644 143.4266507060508 a86.0,86.0 0 0,1 -11.730757126820373,-40.83630448921669" fill="none" id="id33" stroke="none" /><text fill="#e1ed5e" style="font-size:6.75px; font-family:Arial;" text-anchor="middle"><textPath startOffset="21.46611528233685" xlink:href="#id33">September</textPath></text><path d="M 80.58989483394504 108.01547362559985 l -3.0287307567237773 1.2507253975119328 a24.27681614020469,24.27681614020469 0 0,0 -0.1561778283188432,-0.3876205618368866 l 3.049811199300008 -1.198405467832241" fill="#ff0200" stroke="none" /><path d="M 80.32549172779594 107.34259656027581 l -2.955529823574173 1.10301425662707 a24.15464688806195,24.15464688806195 0 0,0 -0.14202442260291934,-0.3907902139408755 l 2.974078507182317 -1.0519762456800774" fill="#ff0000" stroke="none" /><path d="M 80.20201598880116 107.00284435728193 l -2.9949846095667056 1.059371048152514 a24.17682228480052,24.17682228480052 0 0,0 -0.13540076092136313,-0.3935379909287529 l 3.012776201431297 -1.0076603541344642" fill="#ff0000" stroke="none" /><path d="M 79.58551787078972 104.9243191809786 l -3.401390801551742 0.8204731258952277 a24.498947775431507,24.498947775431507 0 0,0 -0.09535857745050742,-0.41080225589094554 l 3.415009944932805 -0.7618022126557079" fill="#ff0500" stroke="none" /><path d="M 79.35854240842038 103.8639653848113 l -4.12282221401577 0.7717692537946831 a25.194435693807296,25.194435693807296 0 0,0 -0.07612745609660015,-0.42696320234685015 l 4.135496112451559 -0.7006873007146193" fill="#ff1001" stroke="none" /><line stroke="#e1ed5e" stroke-width="0.3" x1="15.007084014347285" x2="10.007500721073583" y1="101.09737516637583" y2="101.16192664675087" /><path d="M 14.007167355692545 101.11028546245083 a86.0,86.0 0 0,1 10.666146001902534,-42.60595125391555" fill="none" id="id34" stroke="none" /><text fill="#e1ed5e" style="font-size:6.75px; font-family:Arial;" text-anchor="middle"><textPath startOffset="22.20632615414155" xlink:href="#id34">October</textPath></text><path d="M 79.54389044137918 95.25157060432595 l -4.083661845876344 -0.9479309785364257 a25.1922389258647,25.1922389258647 0 0,0 0.10168931185266905,-0.4215678479101843 l 4.06673973376286 1.0180840581060069" fill="#ff1001" stroke="none" /><path d="M 79.91906864156998 93.8553929516997 l -3.386732784147727 -1.03631359346526 a24.54173754183196,24.54173754183196 0 0,0 0.1270847322130584,-0.4028933301501516 l 3.368392568166465 1.0944570900418262" fill="#ff0600" stroke="none" /><path d="M 80.38941819471856 92.48833698450439 l -3.334110147253928 -1.2771019305491 a24.5703332918698,24.5703332918698 0 0,0 0.1546836448924671,-0.3936530040996356 l 3.31163295247977 1.334303939544499" fill="#ff0601" stroke="none" /><line stroke="#e1ed5e" stroke-width="0.3" x1="26.266209847984243" x2="21.928928074336255" y1="57.711370442889674" y2="55.22380399835377" /><path d="M 25.398753493254645 57.213857153982495 a86.0,86.0 0 0,1 29.58750427330803,-30.492523968695096" fill="none" id="id35" stroke="none" /><text fill="#e1ed5e" style="font-size:6.75px; font-family:Arial;" text-anchor="middle"><textPath startOffset="21.46611528233685" xlink:href="#id35">November</textPath></text><path d="M 83.17141714833178 87.43820079747576 l -5.052511805627548 -3.7714785214005566 a27.30491282916675,27.30491282916675 0 0,0 0.28439244694391264,-0.37422712407026953 l 4.986843418459526 3.857890421351853" fill="#ff2f04" stroke="none" /><line stroke="#e1ed5e" stroke-width="0.3" x1="56.762969772571076" x2="54.21961505331055" y1="26.818313649435495" y2="22.513508569990535" /><path d="M 56.25429882871897 25.957352633546506 a86.0,86.0 0 0,1 42.265352541879196,-11.944610805530505" fill="none" id="id36" stroke="none" /><text fill="#e1ed5e" style="font-size:6.75px; font-family:Arial;" text-anchor="middle"><textPath startOffset="22.20632615414155" xlink:href="#id36">December</textPath></text></svg>